<?xml version='1.0' encoding='utf-8'?>
<svg xmlns="http://www.w3.org/2000/svg" version="1.1" width="170" height="41" viewBox="0 0 2000 341"><defs><style>.coordina-primary{fill:#ffffff}.coordina-accent{fill:var(--accent, #2563eb)}</style></defs><g class="coordina-primary"><path d="M 1416 96 L 1416 327 L 1474 327 L 1474 210 L 1475 209 L 1475 199 L 1476 198 L 1476 193 L 1477 192 L 1477 189 L 1478 188 L 1479 181 L 1486 167 L 1496 156 L 1497 156 L 1502 152 L 1506 150 L 1511 149 L 1512 148 L 1516 148 L 1517 147 L 1528 147 L 1529 146 L 1530 147 L 1542 147 L 1543 148 L 1550 149 L 1558 153 L 1561 156 L 1562 156 L 1569 164 L 1574 174 L 1574 176 L 1576 180 L 1577 188 L 1578 189 L 1578 195 L 1579 196 L 1579 211 L 1580 212 L 1580 327 L 1636 327 L 1636 201 L 1635 200 L 1635 181 L 1634 180 L 1634 172 L 1633 171 L 1633 166 L 1632 165 L 1632 160 L 1631 159 L 1630 151 L 1629 150 L 1627 142 L 1620 128 L 1615 122 L 1615 121 L 1606 112 L 1605 112 L 1602 109 L 1601 109 L 1596 105 L 1590 102 L 1588 102 L 1585 100 L 1582 100 L 1581 99 L 1578 99 L 1577 98 L 1573 98 L 1572 97 L 1566 97 L 1565 96 L 1542 96 L 1541 97 L 1534 97 L 1533 98 L 1529 98 L 1528 99 L 1525 99 L 1524 100 L 1519 101 L 1507 107 L 1505 109 L 1501 111 L 1497 115 L 1496 115 L 1486 126 L 1486 127 L 1482 132 L 1475 146 L 1474 145 L 1474 142 L 1473 141 L 1473 137 L 1472 136 L 1472 132 L 1471 131 L 1471 127 L 1470 126 L 1470 121 L 1469 120 L 1469 116 L 1468 115 L 1468 111 L 1467 110 L 1467 106 L 1466 105 L 1466 100 L 1465 99 L 1465 96 Z" /><path d="M 1322 96 L 1322 327 L 1379 327 L 1379 96 Z" /><path d="M 1020 96 L 1000 96 L 999 97 L 992 97 L 991 98 L 987 98 L 986 99 L 983 99 L 982 100 L 974 102 L 962 108 L 960 110 L 956 112 L 953 115 L 952 115 L 938 130 L 930 144 L 930 146 L 929 147 L 929 149 L 928 150 L 928 152 L 926 156 L 925 155 L 925 147 L 924 146 L 924 132 L 923 131 L 923 117 L 922 116 L 922 102 L 921 101 L 921 96 L 868 96 L 868 327 L 925 327 L 925 217 L 926 216 L 926 209 L 927 208 L 927 204 L 928 203 L 928 200 L 929 199 L 930 194 L 934 186 L 944 175 L 945 175 L 948 172 L 958 167 L 960 167 L 964 165 L 967 165 L 968 164 L 971 164 L 972 163 L 976 163 L 977 162 L 984 162 L 985 161 L 995 161 L 996 160 L 1020 160 Z" /><path d="M 678 101 L 677 102 L 675 102 L 674 103 L 666 105 L 654 111 L 652 113 L 645 117 L 642 120 L 641 120 L 628 133 L 628 134 L 622 141 L 621 144 L 619 146 L 612 160 L 612 162 L 611 163 L 611 165 L 610 166 L 610 168 L 608 172 L 608 175 L 607 176 L 607 179 L 606 180 L 606 184 L 605 185 L 605 189 L 604 190 L 604 197 L 603 198 L 603 231 L 604 232 L 604 239 L 605 240 L 606 249 L 607 250 L 608 257 L 609 258 L 611 266 L 613 269 L 613 271 L 619 283 L 621 285 L 625 292 L 639 307 L 640 307 L 644 311 L 645 311 L 653 317 L 667 324 L 669 324 L 670 325 L 672 325 L 673 326 L 675 326 L 679 328 L 682 328 L 683 329 L 686 329 L 687 330 L 691 330 L 692 331 L 698 331 L 699 332 L 709 332 L 710 333 L 729 333 L 730 332 L 740 332 L 741 331 L 747 331 L 748 330 L 757 329 L 761 327 L 764 327 L 765 326 L 770 325 L 775 322 L 777 322 L 783 319 L 785 317 L 786 317 L 788 315 L 791 314 L 794 311 L 795 311 L 800 306 L 801 306 L 813 293 L 813 292 L 817 287 L 818 284 L 820 282 L 824 274 L 824 272 L 827 267 L 827 265 L 828 264 L 828 262 L 830 258 L 830 255 L 831 254 L 831 251 L 832 250 L 832 247 L 833 246 L 834 234 L 835 233 L 835 219 L 836 218 L 836 210 L 835 209 L 835 195 L 834 194 L 834 188 L 833 187 L 832 178 L 831 177 L 831 174 L 830 173 L 830 171 L 829 170 L 827 162 L 825 159 L 825 157 L 815 139 L 808 131 L 808 130 L 798 120 L 797 120 L 787 112 L 773 105 L 771 105 L 768 103 L 766 103 L 762 101 L 759 101 L 758 100 L 755 100 L 754 99 L 744 98 L 743 97 L 735 97 L 734 96 L 706 96 L 705 97 L 697 97 L 696 98 L 691 98 L 690 99 L 686 99 L 685 100 Z M 700 142 L 704 142 L 705 141 L 712 141 L 713 140 L 725 140 L 726 141 L 734 141 L 735 142 L 739 142 L 740 143 L 745 144 L 748 146 L 750 146 L 752 148 L 755 149 L 767 161 L 767 162 L 771 167 L 773 171 L 773 173 L 775 176 L 775 178 L 776 179 L 776 183 L 777 184 L 777 187 L 778 188 L 778 193 L 779 194 L 779 202 L 780 203 L 780 223 L 779 224 L 779 231 L 778 232 L 778 237 L 777 238 L 777 241 L 776 242 L 776 246 L 775 247 L 774 252 L 770 260 L 764 267 L 764 268 L 755 276 L 752 277 L 750 279 L 748 279 L 742 282 L 739 282 L 738 283 L 733 283 L 732 284 L 706 284 L 705 283 L 701 283 L 700 282 L 697 282 L 691 279 L 689 279 L 687 277 L 684 276 L 681 273 L 680 273 L 674 267 L 674 266 L 670 262 L 669 259 L 667 257 L 666 253 L 663 247 L 663 244 L 662 243 L 662 240 L 661 239 L 661 236 L 660 235 L 660 230 L 659 229 L 659 220 L 658 219 L 658 207 L 659 206 L 659 196 L 660 195 L 660 190 L 661 189 L 661 185 L 662 184 L 662 181 L 663 180 L 664 175 L 671 162 L 679 153 L 680 153 L 687 147 L 691 145 L 699 143 Z" /><path d="M 420 102 L 414 105 L 412 105 L 398 112 L 396 114 L 392 116 L 389 119 L 388 119 L 383 124 L 382 124 L 377 129 L 377 130 L 372 135 L 372 136 L 367 142 L 357 162 L 357 164 L 356 165 L 356 167 L 355 168 L 355 170 L 353 174 L 352 182 L 351 183 L 351 187 L 350 188 L 350 194 L 349 195 L 349 208 L 348 209 L 348 220 L 349 221 L 349 233 L 350 234 L 350 241 L 351 242 L 351 246 L 352 247 L 352 250 L 353 251 L 354 258 L 355 259 L 356 264 L 358 267 L 358 269 L 360 272 L 360 274 L 363 280 L 365 282 L 366 285 L 368 287 L 370 291 L 373 294 L 373 295 L 386 308 L 387 308 L 394 314 L 400 317 L 402 319 L 408 322 L 410 322 L 413 324 L 415 324 L 418 326 L 420 326 L 421 327 L 424 327 L 425 328 L 427 328 L 428 329 L 432 329 L 433 330 L 437 330 L 438 331 L 444 331 L 445 332 L 455 332 L 456 333 L 474 333 L 475 332 L 485 332 L 486 331 L 493 331 L 494 330 L 498 330 L 499 329 L 506 328 L 507 327 L 513 326 L 516 324 L 518 324 L 532 317 L 534 315 L 538 313 L 541 310 L 542 310 L 557 295 L 557 294 L 560 291 L 560 290 L 564 285 L 571 271 L 571 269 L 573 266 L 573 264 L 575 260 L 575 257 L 576 256 L 577 250 L 578 249 L 579 239 L 580 238 L 580 231 L 581 230 L 581 199 L 580 198 L 580 190 L 579 189 L 579 184 L 578 183 L 578 180 L 577 179 L 576 172 L 575 171 L 573 163 L 571 160 L 571 158 L 565 146 L 563 144 L 562 141 L 559 138 L 559 137 L 556 134 L 556 133 L 550 127 L 550 126 L 537 115 L 536 115 L 531 111 L 519 105 L 517 105 L 516 104 L 514 104 L 513 103 L 511 103 L 510 102 L 508 102 L 504 100 L 500 100 L 499 99 L 496 99 L 495 98 L 489 98 L 488 97 L 480 97 L 479 96 L 452 96 L 451 97 L 443 97 L 442 98 L 436 98 L 435 99 L 431 99 L 430 100 L 427 100 L 423 102 Z M 446 142 L 450 142 L 451 141 L 458 141 L 459 140 L 471 140 L 472 141 L 479 141 L 480 142 L 484 142 L 485 143 L 491 144 L 502 150 L 512 160 L 512 161 L 515 164 L 521 177 L 521 180 L 522 181 L 522 184 L 523 185 L 523 189 L 524 190 L 524 195 L 525 196 L 525 209 L 526 210 L 526 215 L 525 216 L 525 229 L 524 230 L 524 235 L 523 236 L 523 240 L 522 241 L 521 248 L 513 264 L 502 275 L 493 280 L 491 280 L 487 282 L 479 283 L 478 284 L 452 284 L 451 283 L 447 283 L 446 282 L 443 282 L 442 281 L 437 280 L 431 277 L 428 274 L 427 274 L 418 265 L 418 264 L 415 261 L 410 251 L 410 249 L 408 245 L 408 242 L 407 241 L 407 238 L 406 237 L 406 232 L 405 231 L 405 224 L 404 223 L 404 202 L 405 201 L 405 194 L 406 193 L 406 188 L 407 187 L 407 184 L 408 183 L 408 180 L 409 179 L 410 174 L 418 160 L 427 151 L 428 151 L 431 148 L 439 144 L 445 143 Z" /><path d="M 1690 114 L 1678 128 L 1677 131 L 1675 133 L 1669 145 L 1669 147 L 1668 148 L 1668 150 L 1667 151 L 1667 153 L 1666 154 L 1666 156 L 1664 160 L 1663 167 L 1662 168 L 1661 178 L 1660 179 L 1660 185 L 1659 186 L 1659 196 L 1658 197 L 1658 233 L 1659 234 L 1659 243 L 1660 244 L 1660 250 L 1661 251 L 1662 261 L 1663 262 L 1664 269 L 1665 270 L 1666 276 L 1669 282 L 1669 284 L 1675 296 L 1677 298 L 1679 302 L 1682 305 L 1682 306 L 1692 316 L 1693 316 L 1696 319 L 1697 319 L 1702 323 L 1708 326 L 1710 326 L 1713 328 L 1715 328 L 1716 329 L 1719 329 L 1720 330 L 1723 330 L 1724 331 L 1729 331 L 1730 332 L 1738 332 L 1739 333 L 1754 333 L 1755 332 L 1764 332 L 1765 331 L 1769 331 L 1770 330 L 1773 330 L 1774 329 L 1780 328 L 1783 326 L 1785 326 L 1793 322 L 1795 320 L 1799 318 L 1812 306 L 1812 305 L 1816 301 L 1816 300 L 1820 295 L 1821 292 L 1823 290 L 1824 291 L 1824 294 L 1825 295 L 1825 298 L 1826 299 L 1826 302 L 1827 303 L 1827 306 L 1828 307 L 1828 310 L 1829 311 L 1829 314 L 1830 315 L 1830 318 L 1831 319 L 1831 322 L 1832 323 L 1832 326 L 1833 327 L 1882 327 L 1882 96 L 1823 96 L 1823 140 L 1822 141 L 1817 131 L 1815 129 L 1813 125 L 1808 120 L 1808 119 L 1799 111 L 1798 111 L 1793 107 L 1781 101 L 1779 101 L 1776 99 L 1769 98 L 1768 97 L 1763 97 L 1762 96 L 1752 96 L 1751 95 L 1742 95 L 1741 96 L 1730 96 L 1729 97 L 1724 97 L 1723 98 L 1720 98 L 1719 99 L 1711 101 L 1701 106 L 1699 108 L 1695 110 L 1691 114 Z M 1754 147 L 1759 147 L 1760 146 L 1779 146 L 1780 147 L 1785 147 L 1786 148 L 1789 148 L 1800 153 L 1809 161 L 1809 162 L 1814 168 L 1817 174 L 1817 176 L 1818 177 L 1818 179 L 1820 183 L 1820 186 L 1821 187 L 1822 199 L 1823 200 L 1823 229 L 1822 230 L 1822 237 L 1821 238 L 1821 243 L 1820 244 L 1820 247 L 1819 248 L 1818 254 L 1811 267 L 1802 276 L 1793 281 L 1787 282 L 1786 283 L 1783 283 L 1782 284 L 1758 284 L 1757 283 L 1752 283 L 1751 282 L 1746 281 L 1738 277 L 1735 274 L 1734 274 L 1725 264 L 1724 261 L 1721 257 L 1721 255 L 1719 252 L 1719 249 L 1717 245 L 1717 241 L 1716 240 L 1716 236 L 1715 235 L 1715 227 L 1714 226 L 1714 204 L 1715 203 L 1715 196 L 1716 195 L 1716 190 L 1717 189 L 1717 186 L 1718 185 L 1718 182 L 1719 181 L 1720 176 L 1723 170 L 1727 165 L 1727 164 L 1736 155 L 1747 149 L 1753 148 Z" /><path d="M 1278 10 L 1220 10 L 1219 11 L 1219 144 L 1218 145 L 1212 133 L 1207 127 L 1207 126 L 1203 122 L 1203 121 L 1192 111 L 1191 111 L 1186 107 L 1174 101 L 1172 101 L 1168 99 L 1165 99 L 1164 98 L 1160 98 L 1159 97 L 1153 97 L 1152 96 L 1129 96 L 1128 97 L 1121 97 L 1120 98 L 1115 98 L 1114 99 L 1111 99 L 1110 100 L 1108 100 L 1107 101 L 1099 103 L 1091 107 L 1089 109 L 1085 111 L 1082 114 L 1081 114 L 1069 126 L 1069 127 L 1064 133 L 1055 151 L 1055 153 L 1054 154 L 1054 156 L 1053 157 L 1053 159 L 1051 163 L 1051 166 L 1050 167 L 1050 170 L 1049 171 L 1049 175 L 1048 176 L 1048 181 L 1047 182 L 1047 188 L 1046 189 L 1046 199 L 1045 200 L 1045 231 L 1046 232 L 1046 241 L 1047 242 L 1047 249 L 1048 250 L 1048 254 L 1049 255 L 1049 259 L 1050 260 L 1050 263 L 1051 264 L 1052 271 L 1053 272 L 1054 277 L 1056 280 L 1056 282 L 1061 292 L 1063 294 L 1066 300 L 1070 304 L 1070 305 L 1079 314 L 1080 314 L 1083 317 L 1084 317 L 1089 321 L 1099 326 L 1101 326 L 1102 327 L 1104 327 L 1108 329 L 1111 329 L 1112 330 L 1115 330 L 1116 331 L 1122 331 L 1123 332 L 1131 332 L 1132 333 L 1148 333 L 1149 332 L 1157 332 L 1158 331 L 1162 331 L 1163 330 L 1170 329 L 1189 320 L 1195 315 L 1196 315 L 1208 303 L 1208 302 L 1213 296 L 1217 288 L 1219 286 L 1220 287 L 1220 290 L 1221 291 L 1221 295 L 1222 296 L 1222 299 L 1223 300 L 1223 303 L 1224 304 L 1225 312 L 1226 313 L 1226 316 L 1227 317 L 1227 320 L 1228 321 L 1228 325 L 1229 327 L 1278 327 Z M 1137 150 L 1140 150 L 1141 149 L 1144 149 L 1145 148 L 1151 148 L 1152 147 L 1169 147 L 1170 148 L 1176 148 L 1177 149 L 1184 150 L 1197 157 L 1205 165 L 1205 166 L 1210 172 L 1212 176 L 1212 178 L 1214 181 L 1215 187 L 1216 188 L 1216 191 L 1217 192 L 1217 196 L 1218 197 L 1218 205 L 1219 206 L 1219 225 L 1218 226 L 1218 233 L 1217 234 L 1216 243 L 1215 244 L 1214 249 L 1212 252 L 1212 254 L 1210 258 L 1206 263 L 1206 264 L 1196 274 L 1195 274 L 1193 276 L 1186 280 L 1184 280 L 1183 281 L 1181 281 L 1177 283 L 1172 283 L 1171 284 L 1147 284 L 1146 283 L 1142 283 L 1141 282 L 1138 282 L 1137 281 L 1132 280 L 1128 277 L 1125 276 L 1114 265 L 1114 264 L 1110 259 L 1108 255 L 1108 253 L 1106 250 L 1106 247 L 1105 246 L 1105 244 L 1104 243 L 1104 239 L 1103 238 L 1103 233 L 1102 232 L 1102 225 L 1101 224 L 1101 207 L 1102 206 L 1102 198 L 1103 197 L 1103 193 L 1104 192 L 1105 185 L 1106 184 L 1107 179 L 1113 168 L 1125 156 Z" /><path d="M 136 9 L 135 10 L 132 10 L 128 12 L 125 12 L 124 13 L 116 15 L 113 17 L 111 17 L 108 19 L 106 19 L 94 25 L 92 27 L 89 28 L 87 30 L 80 34 L 72 41 L 71 41 L 57 55 L 57 56 L 52 61 L 50 65 L 47 68 L 44 74 L 42 76 L 41 79 L 39 81 L 34 91 L 34 93 L 31 98 L 31 100 L 30 101 L 30 103 L 29 104 L 29 106 L 28 107 L 28 109 L 26 113 L 26 116 L 25 117 L 25 120 L 24 121 L 24 124 L 23 125 L 23 129 L 22 130 L 22 134 L 21 135 L 21 141 L 20 142 L 20 151 L 19 152 L 19 191 L 20 192 L 20 200 L 21 201 L 21 207 L 22 208 L 22 213 L 23 214 L 23 218 L 24 219 L 25 226 L 26 227 L 26 229 L 27 230 L 27 232 L 28 233 L 30 241 L 32 244 L 32 246 L 39 260 L 41 262 L 42 265 L 44 267 L 46 271 L 53 279 L 53 280 L 60 287 L 60 288 L 72 299 L 73 299 L 83 307 L 86 308 L 93 313 L 103 318 L 105 318 L 110 321 L 112 321 L 113 322 L 115 322 L 116 323 L 118 323 L 119 324 L 121 324 L 125 326 L 128 326 L 132 328 L 136 328 L 137 329 L 141 329 L 142 330 L 147 330 L 148 331 L 154 331 L 155 332 L 167 332 L 168 333 L 188 333 L 189 332 L 201 332 L 202 331 L 209 331 L 210 330 L 215 330 L 216 329 L 225 328 L 226 327 L 229 327 L 230 326 L 232 326 L 236 324 L 239 324 L 242 322 L 247 321 L 263 313 L 265 311 L 268 310 L 274 305 L 278 303 L 283 298 L 284 298 L 296 286 L 296 285 L 300 281 L 300 280 L 303 277 L 303 276 L 307 271 L 308 268 L 310 266 L 312 261 L 314 259 L 317 253 L 317 251 L 320 246 L 320 244 L 322 241 L 322 239 L 323 238 L 323 236 L 324 235 L 324 233 L 326 229 L 326 226 L 327 225 L 327 222 L 328 221 L 328 218 L 329 217 L 329 213 L 330 211 L 270 211 L 269 219 L 268 220 L 268 223 L 267 224 L 266 229 L 264 232 L 264 234 L 262 238 L 260 240 L 259 243 L 256 246 L 256 247 L 243 260 L 242 260 L 239 263 L 222 272 L 220 272 L 216 274 L 213 274 L 212 275 L 210 275 L 209 276 L 205 276 L 204 277 L 200 277 L 199 278 L 194 278 L 193 279 L 162 279 L 161 278 L 154 278 L 153 277 L 149 277 L 148 276 L 145 276 L 141 274 L 138 274 L 135 272 L 133 272 L 130 270 L 128 270 L 124 268 L 122 266 L 119 265 L 113 260 L 112 260 L 98 246 L 98 245 L 95 242 L 95 241 L 91 236 L 85 224 L 85 222 L 83 219 L 83 217 L 81 213 L 81 210 L 80 209 L 80 206 L 79 205 L 78 196 L 77 195 L 77 188 L 76 187 L 76 175 L 75 174 L 75 159 L 76 158 L 76 147 L 77 146 L 78 134 L 79 133 L 79 130 L 80 129 L 80 126 L 81 125 L 83 117 L 86 112 L 86 110 L 88 106 L 90 104 L 91 101 L 93 99 L 95 95 L 99 91 L 99 90 L 113 77 L 114 77 L 119 73 L 133 66 L 135 66 L 136 65 L 138 65 L 142 63 L 149 62 L 150 61 L 162 60 L 163 59 L 192 59 L 193 60 L 205 61 L 206 62 L 209 62 L 210 63 L 213 63 L 214 64 L 222 66 L 236 73 L 242 78 L 243 78 L 249 84 L 250 84 L 259 95 L 265 107 L 265 109 L 267 113 L 267 116 L 268 117 L 268 121 L 269 122 L 269 124 L 328 124 L 328 122 L 327 121 L 327 117 L 326 116 L 326 112 L 325 111 L 325 108 L 324 107 L 324 105 L 323 104 L 323 102 L 322 101 L 320 93 L 317 88 L 317 86 L 312 76 L 310 74 L 309 71 L 307 69 L 307 68 L 305 66 L 304 63 L 301 60 L 301 59 L 297 55 L 297 54 L 281 38 L 280 38 L 272 31 L 271 31 L 266 27 L 263 26 L 261 24 L 245 16 L 240 15 L 234 12 L 231 12 L 227 10 L 223 10 L 222 9 L 219 9 L 218 8 L 207 7 L 206 6 L 197 6 L 196 5 L 162 5 L 161 6 L 153 6 L 152 7 L 146 7 L 145 8 Z" /><path d="M 1330 8 L 1325 13 L 1324 16 L 1322 18 L 1322 20 L 1320 24 L 1320 28 L 1319 29 L 1319 40 L 1320 41 L 1320 45 L 1321 46 L 1322 51 L 1324 55 L 1327 58 L 1327 59 L 1335 64 L 1337 64 L 1338 65 L 1342 65 L 1343 66 L 1358 66 L 1359 65 L 1363 65 L 1364 64 L 1366 64 L 1372 61 L 1375 58 L 1379 50 L 1380 44 L 1381 43 L 1381 26 L 1380 25 L 1379 19 L 1376 13 L 1371 8 L 1367 6 L 1365 6 L 1364 5 L 1361 5 L 1360 4 L 1341 4 L 1340 5 L 1337 5 L 1336 6 L 1334 6 Z" /></g><g class="coordina-accent"><path d="M 1922 263 L 1919 266 L 1918 266 L 1918 267 L 1915 270 L 1912 276 L 1911 281 L 1910 282 L 1910 288 L 1909 289 L 1910 303 L 1911 304 L 1911 307 L 1913 310 L 1913 312 L 1916 316 L 1916 317 L 1921 322 L 1927 325 L 1929 325 L 1930 326 L 1934 326 L 1935 327 L 1952 327 L 1953 326 L 1960 325 L 1964 323 L 1971 316 L 1974 310 L 1974 308 L 1975 307 L 1975 304 L 1976 303 L 1976 298 L 1977 297 L 1977 288 L 1976 287 L 1976 282 L 1975 281 L 1975 278 L 1969 267 L 1966 264 L 1960 261 L 1954 260 L 1953 259 L 1933 259 L 1932 260 L 1929 260 L 1928 261 L 1926 261 Z" /></g></svg>